<svg xmlns="http://www.w3.org/2000/svg" xmlns:xlink="http://www.w3.org/1999/xlink" version="1.1" id="b-arrow" x="0px" y="0px" width="268px" height="306.2px" viewBox="491.1 1096.9 268 306.2" enable-background="new 491.1 1096.9 268 306.2" xml:space="preserve">
  <g id="_x3C_inner_x3E_">
    <path id="_x3C_fill_x3E_" fill="#A3BCA2" d="M720.8 1096.9H529.4c-21.2 0-38.3 17.1-38.3 38.3v191.4c0 21.2 17.1 38.3 38.3 38.3h28.7v-19.2h-28.7c-10.6 0-19.2-8.6-19.2-19.2v-191.4c0-10.6 8.6-19.2 19.2-19.2h191.4c10.6 0 19.2 8.6 19.2 19.2v191.4c0 10.6-8.6 19.2-19.2 19.2H692v19.2h28.7c21.2 0 38.3-17.1 38.3-38.3v-191.4C759 1114 741.9 1096.9 720.8 1096.9L720.8 1096.9zM698.3 1223.6l-66-66c-2-2-4.7-2.8-7.2-2.7 -2.6-0.1-5.2 0.7-7.2 2.7l-66 66c-3.8 3.7-3.8 9.8 0 13.5 3.7 3.8 9.8 3.8 13.5 0l50.2-50.2v206.6c0 5.3 4.3 9.6 9.6 9.6s9.6-4.3 9.6-9.6V1187l50.2 50.2c3.7 3.8 9.8 3.8 13.5 0C702.1 1233.4 702.1 1227.3 698.3 1223.6L698.3 1223.6z"/>
  </g>
</svg>
