<?xml version="1.0" encoding="utf-8"?>
<!-- Generator: Adobe Illustrator 16.0.0, SVG Export Plug-In . SVG Version: 6.00 Build 0)  -->
<!DOCTYPE svg PUBLIC "-//W3C//DTD SVG 1.1//EN" "http://www.w3.org/Graphics/SVG/1.1/DTD/svg11.dtd">
<svg version="1.1" id="b-arrow" xmlns="http://www.w3.org/2000/svg" xmlns:xlink="http://www.w3.org/1999/xlink" x="0px" y="0px"
	 width="1071.875px" height="1225px" viewBox="89.125 637.5 1071.875 1225" enable-background="new 89.125 637.5 1071.875 1225"
	 xml:space="preserve">
<g id="_x3C_arrow_x5F__x5F_inner_x3E_">
	<path id="_x3C_arrow_x5F__x5F_fill_x3E_" fill="#A3BCA2" d="M1007.875,637.5H242.25c-84.625,0-153.125,68.5-153.125,153.125
		v765.625c0,84.625,68.5,153.125,153.125,153.125h114.875v-76.625H242.25c-42.25,0-76.625-34.25-76.625-76.625v-765.5
		c0-42.25,34.25-76.625,76.625-76.625h765.625c42.25,0,76.625,34.25,76.625,76.625v765.625c0,42.25-34.25,76.625-76.625,76.625H893
		v76.625h114.875c84.625,0,153.125-68.5,153.125-153.125v-765.75C1161,706,1092.375,637.5,1007.875,637.5L1007.875,637.5z
		 M918.125,1144.5L654,880.375c-8-8-18.625-11.375-29-10.875c-10.375-0.5-21,2.875-29,10.875L331.875,1144.5
		c-15,14.875-15,39.25,0,54.125c14.875,15,39.25,15,54.125,0l200.625-200.75v826.375c0,21.125,17.125,38.25,38.25,38.25
		s38.25-17.125,38.25-38.25V997.875l200.75,200.75c14.875,15,39.25,15,54.125,0C933.125,1183.625,933.125,1159.375,918.125,1144.5
		L918.125,1144.5z"/>
</g>
</svg>
